<svg width="18" height="19" viewBox="0 0 18 19" fill="none" xmlns="http://www.w3.org/2000/svg">
<path d="M15.625 6.25H11.25V1.875C11.25 1.37772 11.0525 0.900805 10.7008 0.549175C10.3492 0.197544 9.87228 0 9.375 0H1.875C1.37772 0 0.900806 0.197544 0.549175 0.549175C0.197544 0.900805 0 1.37772 0 1.875V18.125C0 18.2908 0.065848 18.4497 0.183058 18.5669C0.300268 18.6842 0.45924 18.75 0.625 18.75H4.6875C4.77038 18.75 4.84987 18.7171 4.90847 18.6585C4.96708 18.5999 5 18.5204 5 18.4375V15.6426C5 15.3063 5.25859 15.0176 5.59492 15.0008C5.67943 14.9967 5.76388 15.0098 5.84316 15.0394C5.92245 15.0689 5.99491 15.1142 6.05616 15.1726C6.1174 15.231 6.16617 15.3011 6.19949 15.3789C6.23281 15.4567 6.24999 15.5404 6.25 15.625V18.4375C6.25 18.5204 6.28292 18.5999 6.34153 18.6585C6.40013 18.7171 6.47962 18.75 6.5625 18.75H16.875C17.0408 18.75 17.1997 18.6842 17.3169 18.5669C17.4342 18.4497 17.5 18.2908 17.5 18.125V8.125C17.5 7.62772 17.3025 7.15081 16.9508 6.79917C16.5992 6.44754 16.1223 6.25 15.625 6.25ZM2.58125 16.2449C2.45181 16.2619 2.32031 16.2378 2.20522 16.1762C2.09013 16.1146 1.99722 16.0185 1.93954 15.9014C1.88185 15.7843 1.86228 15.6521 1.88357 15.5233C1.90486 15.3945 1.96595 15.2756 2.05826 15.1833C2.15057 15.0909 2.26946 15.0299 2.39826 15.0086C2.52705 14.9873 2.65928 15.0068 2.77639 15.0645C2.8935 15.1222 2.9896 15.2151 3.05121 15.3302C3.11282 15.4453 3.13685 15.5768 3.11992 15.7062C3.10206 15.8429 3.03956 15.9697 2.94214 16.0671C2.84473 16.1646 2.71785 16.2271 2.58125 16.2449ZM2.58125 13.1199C2.45181 13.1369 2.32031 13.1128 2.20522 13.0512C2.09013 12.9896 1.99722 12.8935 1.93954 12.7764C1.88185 12.6593 1.86228 12.5271 1.88357 12.3983C1.90486 12.2695 1.96595 12.1506 2.05826 12.0583C2.15057 11.9659 2.26946 11.9049 2.39826 11.8836C2.52705 11.8623 2.65928 11.8818 2.77639 11.9395C2.8935 11.9972 2.9896 12.0901 3.05121 12.2052C3.11282 12.3203 3.13685 12.4518 3.11992 12.5812C3.10206 12.7179 3.03956 12.8447 2.94214 12.9421C2.84473 13.0396 2.71785 13.1021 2.58125 13.1199ZM2.58125 9.99492C2.45181 10.0119 2.32031 9.98782 2.20522 9.92621C2.09013 9.8646 1.99722 9.7685 1.93954 9.65139C1.88185 9.53429 1.86228 9.40205 1.88357 9.27326C1.90486 9.14446 1.96595 9.02557 2.05826 8.93326C2.15057 8.84095 2.26946 8.77986 2.39826 8.75857C2.52705 8.73728 2.65928 8.75685 2.77639 8.81454C2.8935 8.87222 2.9896 8.96513 3.05121 9.08022C3.11282 9.19531 3.13685 9.32681 3.11992 9.45625C3.10206 9.59285 3.03956 9.71973 2.94214 9.81714C2.84473 9.91456 2.71785 9.97706 2.58125 9.99492ZM2.58125 6.86992C2.45181 6.88685 2.32031 6.86282 2.20522 6.80121C2.09013 6.7396 1.99722 6.6435 1.93954 6.52639C1.88185 6.40928 1.86228 6.27705 1.88357 6.14826C1.90486 6.01946 1.96595 5.90057 2.05826 5.80826C2.15057 5.71595 2.26946 5.65486 2.39826 5.63357C2.52705 5.61228 2.65928 5.63185 2.77639 5.68954C2.8935 5.74722 2.9896 5.84013 3.05121 5.95522C3.11282 6.07031 3.13685 6.20181 3.11992 6.33125C3.10206 6.46785 3.03956 6.59473 2.94214 6.69214C2.84473 6.78956 2.71785 6.85206 2.58125 6.86992ZM2.58125 3.74492C2.45181 3.76185 2.32031 3.73782 2.20522 3.67621C2.09013 3.6146 1.99722 3.5185 1.93954 3.40139C1.88185 3.28428 1.86228 3.15205 1.88357 3.02326C1.90486 2.89446 1.96595 2.77557 2.05826 2.68326C2.15057 2.59095 2.26946 2.52986 2.39826 2.50857C2.52705 2.48728 2.65928 2.50685 2.77639 2.56454C2.8935 2.62222 2.9896 2.71513 3.05121 2.83022C3.11282 2.94531 3.13685 3.07681 3.11992 3.20625C3.10206 3.34285 3.03956 3.46973 2.94214 3.56714C2.84473 3.66456 2.71785 3.72706 2.58125 3.74492ZM5.70625 13.1199C5.57681 13.1369 5.44531 13.1128 5.33022 13.0512C5.21513 12.9896 5.12222 12.8935 5.06454 12.7764C5.00685 12.6593 4.98728 12.5271 5.00857 12.3983C5.02986 12.2695 5.09095 12.1506 5.18326 12.0583C5.27557 11.9659 5.39446 11.9049 5.52326 11.8836C5.65205 11.8623 5.78428 11.8818 5.90139 11.9395C6.0185 11.9972 6.1146 12.0901 6.17621 12.2052C6.23782 12.3203 6.26185 12.4518 6.24492 12.5812C6.22706 12.7179 6.16456 12.8447 6.06714 12.9421C5.96973 13.0396 5.84285 13.1021 5.70625 13.1199ZM5.70625 9.99492C5.57681 10.0119 5.44531 9.98782 5.33022 9.92621C5.21513 9.8646 5.12222 9.7685 5.06454 9.65139C5.00685 9.53429 4.98728 9.40205 5.00857 9.27326C5.02986 9.14446 5.09095 9.02557 5.18326 8.93326C5.27557 8.84095 5.39446 8.77986 5.52326 8.75857C5.65205 8.73728 5.78428 8.75685 5.90139 8.81454C6.0185 8.87222 6.1146 8.96513 6.17621 9.08022C6.23782 9.19531 6.26185 9.32681 6.24492 9.45625C6.22706 9.59285 6.16456 9.71973 6.06714 9.81714C5.96973 9.91456 5.84285 9.97706 5.70625 9.99492ZM5.70625 6.86992C5.57681 6.88685 5.44531 6.86282 5.33022 6.80121C5.21513 6.7396 5.12222 6.6435 5.06454 6.52639C5.00685 6.40928 4.98728 6.27705 5.00857 6.14826C5.02986 6.01946 5.09095 5.90057 5.18326 5.80826C5.27557 5.71595 5.39446 5.65486 5.52326 5.63357C5.65205 5.61228 5.78428 5.63185 5.90139 5.68954C6.0185 5.74722 6.1146 5.84013 6.17621 5.95522C6.23782 6.07031 6.26185 6.20181 6.24492 6.33125C6.22706 6.46785 6.16456 6.59473 6.06714 6.69214C5.96973 6.78956 5.84285 6.85206 5.70625 6.86992ZM5.70625 3.74492C5.57681 3.76185 5.44531 3.73782 5.33022 3.67621C5.21513 3.6146 5.12222 3.5185 5.06454 3.40139C5.00685 3.28428 4.98728 3.15205 5.00857 3.02326C5.02986 2.89446 5.09095 2.77557 5.18326 2.68326C5.27557 2.59095 5.39446 2.52986 5.52326 2.50857C5.65205 2.48728 5.78428 2.50685 5.90139 2.56454C6.0185 2.62222 6.1146 2.71513 6.17621 2.83022C6.23782 2.94531 6.26185 3.07681 6.24492 3.20625C6.22706 3.34285 6.16456 3.46973 6.06714 3.56714C5.96973 3.66456 5.84285 3.72706 5.70625 3.74492ZM8.83125 16.2449C8.70181 16.2619 8.57031 16.2378 8.45522 16.1762C8.34013 16.1146 8.24722 16.0185 8.18954 15.9014C8.13185 15.7843 8.11228 15.6521 8.13357 15.5233C8.15486 15.3945 8.21595 15.2756 8.30826 15.1833C8.40057 15.0909 8.51946 15.0299 8.64826 15.0086C8.77705 14.9873 8.90929 15.0068 9.02639 15.0645C9.1435 15.1222 9.2396 15.2151 9.30121 15.3302C9.36282 15.4453 9.38685 15.5768 9.36992 15.7062C9.35206 15.8429 9.28956 15.9697 9.19214 16.0671C9.09473 16.1646 8.96785 16.2271 8.83125 16.2449ZM8.83125 13.1199C8.70181 13.1369 8.57031 13.1128 8.45522 13.0512C8.34013 12.9896 8.24722 12.8935 8.18954 12.7764C8.13185 12.6593 8.11228 12.5271 8.13357 12.3983C8.15486 12.2695 8.21595 12.1506 8.30826 12.0583C8.40057 11.9659 8.51946 11.9049 8.64826 11.8836C8.77705 11.8623 8.90929 11.8818 9.02639 11.9395C9.1435 11.9972 9.2396 12.0901 9.30121 12.2052C9.36282 12.3203 9.38685 12.4518 9.36992 12.5812C9.35206 12.7179 9.28956 12.8447 9.19214 12.9421C9.09473 13.0396 8.96785 13.1021 8.83125 13.1199ZM8.83125 9.99492C8.70181 10.0119 8.57031 9.98782 8.45522 9.92621C8.34013 9.8646 8.24722 9.7685 8.18954 9.65139C8.13185 9.53429 8.11228 9.40205 8.13357 9.27326C8.15486 9.14446 8.21595 9.02557 8.30826 8.93326C8.40057 8.84095 8.51946 8.77986 8.64826 8.75857C8.77705 8.73728 8.90929 8.75685 9.02639 8.81454C9.1435 8.87222 9.2396 8.96513 9.30121 9.08022C9.36282 9.19531 9.38685 9.32681 9.36992 9.45625C9.35206 9.59285 9.28956 9.71973 9.19214 9.81714C9.09473 9.91456 8.96785 9.97706 8.83125 9.99492ZM8.83125 6.86992C8.70181 6.88685 8.57031 6.86282 8.45522 6.80121C8.34013 6.7396 8.24722 6.6435 8.18954 6.52639C8.13185 6.40928 8.11228 6.27705 8.13357 6.14826C8.15486 6.01946 8.21595 5.90057 8.30826 5.80826C8.40057 5.71595 8.51946 5.65486 8.64826 5.63357C8.77705 5.61228 8.90929 5.63185 9.02639 5.68954C9.1435 5.74722 9.2396 5.84013 9.30121 5.95522C9.36282 6.07031 9.38685 6.20181 9.36992 6.33125C9.35206 6.46785 9.28956 6.59473 9.19214 6.69214C9.09473 6.78956 8.96785 6.85206 8.83125 6.86992ZM8.83125 3.74492C8.70181 3.76185 8.57031 3.73782 8.45522 3.67621C8.34013 3.6146 8.24722 3.5185 8.18954 3.40139C8.13185 3.28428 8.11228 3.15205 8.13357 3.02326C8.15486 2.89446 8.21595 2.77557 8.30826 2.68326C8.40057 2.59095 8.51946 2.52986 8.64826 2.50857C8.77705 2.48728 8.90929 2.50685 9.02639 2.56454C9.1435 2.62222 9.2396 2.71513 9.30121 2.83022C9.36282 2.94531 9.38685 3.07681 9.36992 3.20625C9.35206 3.34285 9.28956 3.46973 9.19214 3.56714C9.09473 3.66456 8.96785 3.72706 8.83125 3.74492ZM16.0938 17.5H11.25V7.5H15.625C15.7908 7.5 15.9497 7.56585 16.0669 7.68306C16.1842 7.80027 16.25 7.95924 16.25 8.125V17.3438C16.25 17.3852 16.2335 17.4249 16.2042 17.4542C16.1749 17.4835 16.1352 17.5 16.0938 17.5Z" fill="black" fill-opacity="0.64"/>
</svg>
