<svg width="15" height="15" viewBox="0 0 15 15" fill="none" xmlns="http://www.w3.org/2000/svg">
<path d="M14.9274 3.85013C14.6646 2.94763 14.1784 2.12602 13.5137 1.46135C12.849 0.796679 12.0274 0.310436 11.1249 0.0476312C10.8789 -0.0158771 10.6209 -0.0158771 10.3749 0.0476312C10.1275 0.119448 9.90281 0.253761 9.7224 0.437631L8.0499 2.11763L0.894903 9.26513C0.670007 9.49995 0.523294 9.79861 0.474903 10.1201L0.017403 13.2401C-0.0175986 13.4736 0.000343982 13.712 0.0699032 13.9376C0.146403 14.1626 0.272403 14.3674 0.437403 14.5376C0.605403 14.7041 0.807903 14.8316 1.0299 14.9126C1.18515 14.9636 1.34715 14.9884 1.5099 14.9876H1.7274L4.8474 14.5301C5.17313 14.4883 5.47613 14.3408 5.7099 14.1101L12.8724 6.94763L14.5374 5.29013C14.725 5.10653 14.8611 4.87691 14.9322 4.62422C15.0033 4.37153 15.0068 4.10461 14.9424 3.85013H14.9274ZM13.8324 4.32263C13.8126 4.38595 13.7764 4.44289 13.7274 4.48763L12.4599 5.75513L9.2199 2.52263L10.5024 1.24013C10.5519 1.19522 10.6109 1.16191 10.6749 1.14263H10.8474C11.5575 1.35383 12.2036 1.73876 12.7275 2.26258C13.2513 2.7864 13.6362 3.43258 13.8474 4.14263C13.8546 4.20303 13.8495 4.26426 13.8324 4.32263Z" fill="#00C317"/>
</svg>
