<svg width="12" height="12" viewBox="0 0 12 12" fill="none" xmlns="http://www.w3.org/2000/svg">
<g clip-path="url(#clip0_138_2814)">
<path d="M1.4534 3.3749C2.9034 0.863905 6.1139 0.0034048 8.6249 1.4534C9.61991 2.02762 10.3991 2.91235 10.843 3.97193C11.2869 5.03151 11.371 6.20744 11.0824 7.3194C10.9234 7.9319 10.1774 8.1044 9.7534 7.6924L9.7059 7.6424L8.5804 6.3489C8.0789 5.7729 8.5924 4.9039 9.3194 5.0349L9.3859 5.0499L9.64491 5.1169C9.44969 4.31231 8.9937 3.59493 8.34803 3.07666C7.70236 2.55839 6.90333 2.26837 6.07556 2.25182C5.24778 2.23528 4.4378 2.49315 3.77194 2.98521C3.10609 3.47727 2.62179 4.17585 2.39459 4.97201C2.16739 5.76817 2.21005 6.61713 2.51593 7.3865C2.82181 8.15586 3.37371 8.80237 4.08555 9.22519C4.79738 9.64802 5.62913 9.82338 6.45108 9.72392C7.27303 9.62447 8.03895 9.2558 8.62941 8.6754C8.69963 8.60633 8.78277 8.55176 8.87408 8.51482C8.9654 8.47787 9.06309 8.45928 9.16159 8.46009C9.26009 8.4609 9.35747 8.48111 9.44816 8.51955C9.53885 8.558 9.62108 8.61393 9.69016 8.68415C9.75923 8.75438 9.8138 8.83752 9.85074 8.92883C9.88768 9.02015 9.90628 9.11784 9.90547 9.21634C9.90466 9.31484 9.88445 9.41222 9.84601 9.50291C9.80756 9.5936 9.75163 9.67583 9.68141 9.7449C8.0409 11.3589 5.4664 11.7539 3.3749 10.5464C0.863905 9.09641 0.0034048 5.8864 1.4534 3.3749ZM5.9999 2.7499C6.18627 2.7499 6.36596 2.81928 6.50396 2.94453C6.64196 3.06978 6.72839 3.24191 6.7464 3.4274L6.7499 3.4999V5.6894L7.7799 6.7194C7.91646 6.85521 7.99555 7.03834 8.00077 7.23087C8.00599 7.42339 7.93695 7.61054 7.80796 7.75355C7.67896 7.89656 7.49989 7.98446 7.30785 7.99905C7.11581 8.01363 6.92552 7.95379 6.7764 7.8319L6.7194 7.7804L5.4694 6.5304C5.3468 6.40778 5.27047 6.24647 5.2534 6.0739L5.2499 5.9999V3.4999C5.2499 3.30099 5.32892 3.11023 5.46957 2.96957C5.61023 2.82892 5.80099 2.7499 5.9999 2.7499Z" fill="currentColor"/>
</g>
<defs>
<clipPath id="clip0_138_2814">
<rect width="12" height="12" fill="currentColor"/>
</clipPath>
</defs>
</svg>
