<svg width="12" height="12" viewBox="0 0 12 12" fill="none" xmlns="http://www.w3.org/2000/svg">
<g clip-path="url(#clip0_108_413)">
<path d="M10.5 8.5H5V9.5C5 9.63261 4.94732 9.75979 4.85355 9.85355C4.75979 9.94732 4.63261 10 4.5 10C4.36739 10 4.24021 9.94732 4.14645 9.85355C4.05268 9.75979 4 9.63261 4 9.5V8.5H3V9.5C3 9.63261 2.94732 9.75979 2.85355 9.85355C2.75979 9.94732 2.63261 10 2.5 10C2.36739 10 2.24021 9.94732 2.14645 9.85355C2.05268 9.75979 2 9.63261 2 9.5V8.5H1.5C1.10218 8.5 0.720644 8.65804 0.43934 8.93934C0.158035 9.22064 0 9.60218 0 10C0 10.3978 0.158035 10.7794 0.43934 11.0607C0.720644 11.342 1.10218 11.5 1.5 11.5H10.5C10.8978 11.5 11.2794 11.342 11.5607 11.0607C11.842 10.7794 12 10.3978 12 10C12 9.60218 11.842 9.22064 11.5607 8.93934C11.2794 8.65804 10.8978 8.5 10.5 8.5Z" fill="currentColor"/>
<path d="M10.5 4.5H5V5.5C5 5.63261 4.94732 5.75979 4.85355 5.85355C4.75979 5.94732 4.63261 6 4.5 6C4.36739 6 4.24021 5.94732 4.14645 5.85355C4.05268 5.75979 4 5.63261 4 5.5V4.5H3V5.5C3 5.63261 2.94732 5.75979 2.85355 5.85355C2.75979 5.94732 2.63261 6 2.5 6C2.36739 6 2.24021 5.94732 2.14645 5.85355C2.05268 5.75979 2 5.63261 2 5.5V4.5H1.5C1.10218 4.5 0.720644 4.65804 0.43934 4.93934C0.158035 5.22064 0 5.60218 0 6C0 6.39782 0.158035 6.77936 0.43934 7.06066C0.720644 7.34196 1.10218 7.5 1.5 7.5H10.5C10.8978 7.5 11.2794 7.34196 11.5607 7.06066C11.842 6.77936 12 6.39782 12 6C12 5.60218 11.842 5.22064 11.5607 4.93934C11.2794 4.65804 10.8978 4.5 10.5 4.5Z" fill="currentColor"/>
<path d="M10.5 0.5H5V1.5C5 1.63261 4.94732 1.75979 4.85355 1.85355C4.75979 1.94732 4.63261 2 4.5 2C4.36739 2 4.24021 1.94732 4.14645 1.85355C4.05268 1.75979 4 1.63261 4 1.5V0.5H3V1.5C3 1.63261 2.94732 1.75979 2.85355 1.85355C2.75979 1.94732 2.63261 2 2.5 2C2.36739 2 2.24021 1.94732 2.14645 1.85355C2.05268 1.75979 2 1.63261 2 1.5V0.5H1.5C1.10218 0.5 0.720644 0.658035 0.43934 0.93934C0.158035 1.22064 0 1.60218 0 2C0 2.39782 0.158035 2.77936 0.43934 3.06066C0.720644 3.34196 1.10218 3.5 1.5 3.5H10.5C10.8978 3.5 11.2794 3.34196 11.5607 3.06066C11.842 2.77936 12 2.39782 12 2C12 1.60218 11.842 1.22064 11.5607 0.93934C11.2794 0.658035 10.8978 0.5 10.5 0.5Z" fill="currentColor"/>
</g>
<defs>
<clipPath id="clip0_108_413">
<rect width="12" height="12" fill="currentColor"/>
</clipPath>
</defs>
</svg>
