<svg width="12" height="12" viewBox="0 0 12 12" fill="none" xmlns="http://www.w3.org/2000/svg">
<g clip-path="url(#clip0_138_2830)">
<path d="M7.00003 3.50012C7.00003 3.69791 6.94138 3.89125 6.8315 4.0557C6.72162 4.22014 6.56544 4.34832 6.38271 4.424C6.19999 4.49969 5.99892 4.5195 5.80494 4.48091C5.61096 4.44233 5.43278 4.34708 5.29292 4.20723C5.15307 4.06738 5.05783 3.8892 5.01925 3.69522C4.98066 3.50123 5.00046 3.30017 5.07615 3.11744C5.15184 2.93472 5.28001 2.77854 5.44446 2.66866C5.60891 2.55877 5.80225 2.50012 6.00003 2.50012C6.26525 2.50012 6.5196 2.60548 6.70714 2.79302C6.89467 2.98055 7.00003 3.23491 7.00003 3.50012ZM8.47903 6.09213L6.95003 7.60763C6.82597 7.73271 6.67837 7.83199 6.51575 7.89974C6.35313 7.96749 6.1787 8.00237 6.00253 8.00237C5.82636 8.00237 5.65193 7.96749 5.48931 7.89974C5.32669 7.83199 5.17909 7.73271 5.05503 7.60763L3.52703 6.10013C2.87091 5.42371 2.50347 4.5187 2.50235 3.57634C2.50123 2.63398 2.86652 1.7281 3.52103 1.05012C3.84271 0.717769 4.22794 0.453491 4.65381 0.273005C5.07968 0.0925197 5.53749 -0.000488281 6.00003 -0.000488281C6.46257 -0.000488281 6.92038 0.0925197 7.34625 0.273005C7.77212 0.453491 8.15735 0.717769 8.47903 1.05012C9.13255 1.72664 9.49782 2.63051 9.49782 3.57113C9.49782 4.51174 9.13255 5.41561 8.47903 6.09213ZM8.00003 3.50012C8.00003 3.10456 7.88273 2.71788 7.66297 2.38898C7.44321 2.06009 7.13085 1.80374 6.7654 1.65237C6.39995 1.50099 5.99781 1.46138 5.60985 1.53855C5.22189 1.61572 4.86552 1.80621 4.58582 2.08591C4.30611 2.36562 4.11563 2.72198 4.03846 3.10994C3.96129 3.49791 4.0009 3.90004 4.15227 4.26549C4.30365 4.63094 4.55999 4.9433 4.88889 5.16306C5.21779 5.38283 5.60447 5.50012 6.00003 5.50012C6.53046 5.50012 7.03917 5.28941 7.41424 4.91434C7.78932 4.53927 8.00003 4.03056 8.00003 3.50012ZM10.3765 4.60012C10.194 5.4265 9.78472 6.1856 9.19453 6.79213L7.65553 8.31863C7.43902 8.53567 7.18185 8.70793 6.89874 8.82555C6.61562 8.94317 6.31211 9.00385 6.00553 9.00413C5.69912 9.00424 5.39569 8.94398 5.11258 8.82678C4.82947 8.70959 4.57222 8.53777 4.35553 8.32113L2.82403 6.80963C2.2416 6.21172 1.83283 5.4666 1.64153 4.65412C1.31678 4.77316 1.01984 4.95745 0.76903 5.19562C0.524556 5.42806 0.330218 5.70805 0.19797 6.01837C0.0657225 6.3287 -0.00163857 6.6628 3.02659e-05 7.00013V9.03763C0.00108106 9.57829 0.176926 10.1041 0.501326 10.5367C0.825725 10.9692 1.28129 11.2852 1.80003 11.4376L3.23503 11.8876C3.47606 11.9626 3.7271 12.0006 3.97953 12.0001C4.20853 11.9998 4.43643 11.9685 4.65703 11.9071L7.54703 11.0521C7.80445 10.9816 8.07611 10.9816 8.33353 11.0521L9.52703 11.4521C9.82118 11.5237 10.1277 11.5276 10.4236 11.4635C10.7195 11.3994 10.9969 11.2689 11.2351 11.082C11.4732 10.895 11.6658 10.6565 11.7983 10.3843C11.9308 10.1121 11.9998 9.81336 12 9.51063V6.93613C11.9983 6.42803 11.8421 5.93248 11.5521 5.51525C11.2622 5.09802 10.8522 4.77885 10.3765 4.60012Z" fill="currentColor"/>
</g>
<defs>
<clipPath id="clip0_138_2830">
<rect width="12" height="12" fill="currentColor"/>
</clipPath>
</defs>
</svg>
