<svg width="12" height="12" viewBox="0 0 12 12" fill="none" xmlns="http://www.w3.org/2000/svg">
<g clip-path="url(#clip0_108_418)">
<path d="M6 5C5.6575 5 5.3255 5.02 5 5.05V8.5C5 8.6326 4.94732 8.75978 4.85355 8.85355C4.75979 8.94732 4.63261 9 4.5 9C4.36739 9 4.24021 8.94732 4.14645 8.85355C4.05268 8.75978 4 8.6326 4 8.5L3.989 4.0575L6.4935 3.0195C6.64605 2.94198 6.77616 2.82661 6.87138 2.68443C6.9666 2.54225 7.02374 2.37802 7.03733 2.20744C7.05093 2.03687 7.02052 1.86565 6.94903 1.71019C6.87754 1.55472 6.76735 1.4202 6.629 1.3195C6.613 1.305 4.45 0.105995 4.45 0.105995C4.29747 0.0291338 4.12779 -0.00737742 3.95714 -5.77476e-05C3.7865 0.00726193 3.62057 0.0581685 3.47518 0.147809C3.32979 0.237449 3.20978 0.362836 3.1266 0.512015C3.04342 0.661194 2.99983 0.829192 3 0.999995V5.461C1.196 6.0575 0 7.1805 0 8.5C0 10.4625 2.6355 12 6 12C9.3645 12 12 10.4625 12 8.5C12 6.5375 9.3645 5 6 5ZM8 9.5C7.80222 9.5 7.60888 9.44135 7.44443 9.33147C7.27998 9.22158 7.15181 9.06541 7.07612 8.88268C7.00043 8.69995 6.98063 8.49889 7.01921 8.30491C7.0578 8.11092 7.15304 7.93274 7.29289 7.79289C7.43275 7.65304 7.61093 7.5578 7.80491 7.51921C7.99889 7.48063 8.19996 7.50043 8.38268 7.57612C8.56541 7.6518 8.72159 7.77998 8.83147 7.94443C8.94135 8.10888 9 8.30221 9 8.5C9 8.76521 8.89464 9.01957 8.70711 9.2071C8.51957 9.39464 8.26522 9.5 8 9.5Z" fill="currentColor"/>
</g>
<defs>
<clipPath id="clip0_108_418">
<rect width="12" height="12" fill="white"/>
</clipPath>
</defs>
</svg>
