<svg width="10" height="12" viewBox="0 0 10 12" fill="none" xmlns="http://www.w3.org/2000/svg">
<path d="M0.187171 9C0.570214 9.7178 1.41968 9.96441 2.08448 9.55083C2.08493 9.55055 2.08537 9.55027 2.08582 9.54998L2.29189 9.42148C2.68088 9.78082 3.128 10.0595 3.61075 10.2435V10.5C3.61075 11.3284 4.23274 12 5 12C5.76726 12 6.38925 11.3284 6.38925 10.5V10.2435C6.87206 10.0592 7.31921 9.78021 7.70811 9.42049L7.91511 9.54949C8.58006 9.9637 9.43013 9.71747 9.81376 8.99948C10.1974 8.28152 9.96934 7.36369 9.30436 6.94948L9.09875 6.82148C9.19131 6.27771 9.19131 5.72027 9.09875 5.17648L9.30436 5.04848C9.96932 4.63427 10.1974 3.71646 9.81376 2.99848C9.43013 2.28052 8.58008 2.03426 7.91511 2.44847L7.70904 2.57698C7.31966 2.21808 6.87224 1.93992 6.38925 1.7565V1.5C6.38925 0.671578 5.76726 0 5 0C4.23274 0 3.61075 0.671578 3.61075 1.5V1.7565C3.12794 1.94079 2.68079 2.21979 2.29189 2.57951L2.08489 2.45002C1.41992 2.03578 0.569867 2.28204 0.186238 3C-0.197391 3.71796 0.0306632 4.6358 0.695638 5.05001L0.901247 5.178C0.808688 5.72177 0.808688 6.27921 0.901247 6.82301L0.695638 6.951C0.0325083 7.36631 -0.194808 8.28234 0.187171 9ZM5 4.00001C6.02301 4.00001 6.85233 4.89544 6.85233 6C6.85233 7.10456 6.02301 7.99999 5 7.99999C3.97699 7.99999 3.14767 7.10456 3.14767 6C3.14767 4.89544 3.97699 4.00001 5 4.00001Z" fill="currentColor"/>
</svg>
