<svg width="20" height="20" viewBox="0 0 20 20" fill="none" xmlns="http://www.w3.org/2000/svg">
<path d="M19.1663 9.16601H17.4996V7.49933C17.4996 7.0391 17.1266 6.66602 16.6663 6.66602C16.2061 6.66602 15.833 7.0391 15.833 7.49933V9.16601H14.1663C13.7061 9.16601 13.333 9.5391 13.333 9.99933C13.333 10.4596 13.7061 10.8326 14.1663 10.8326H15.833V12.4993C15.833 12.9596 16.2061 13.3326 16.6663 13.3326C17.1266 13.3326 17.4996 12.9596 17.4996 12.4993V10.8326H19.1663C19.6266 10.8326 19.9996 10.4596 19.9996 9.99933C19.9996 9.5391 19.6266 9.16601 19.1663 9.16601Z" fill="#00C317"/>
<path d="M7.5 10C10.2614 10 12.5 7.76142 12.5 5C12.5 2.23858 10.2614 0 7.5 0C4.73858 0 2.5 2.23858 2.5 5C2.5 7.76142 4.73858 10 7.5 10Z" fill="#00C317"/>
<path d="M7.5 11.666C3.35977 11.6706 0.00460937 15.0258 0 19.166C0 19.6262 0.373086 19.9993 0.83332 19.9993H14.1666C14.6269 19.9993 15 19.6262 15 19.166C14.9954 15.0258 11.6402 11.6706 7.5 11.666Z" fill="#00C317"/>
</svg>
