<svg width="40" height="40" viewBox="0 0 40 40" fill="none" xmlns="http://www.w3.org/2000/svg">
<path d="M17.4925 0H11.5401C9.24354 0 7.23599 1.79464 6.68918 4.33929L0.111884 34.6875C-0.473979 37.3839 1.31486 40 3.75205 40H17.4925V34.2857C17.4925 32.7054 18.6095 31.4286 19.9922 31.4286C21.3748 31.4286 22.4919 32.7054 22.4919 34.2857V40H36.2479C38.6851 40 40.474 37.3839 39.8881 34.6875L33.3186 4.33929C32.764 1.79464 30.7643 0 28.4599 0H22.4919V5.71429C22.4919 7.29464 21.3748 8.57143 19.9922 8.57143C18.6095 8.57143 17.4925 7.29464 17.4925 5.71429V0ZM22.4919 17.1429V22.8571C22.4919 24.4375 21.3748 25.7143 19.9922 25.7143C18.6095 25.7143 17.4925 24.4375 17.4925 22.8571V17.1429C17.4925 15.5625 18.6095 14.2857 19.9922 14.2857C21.3748 14.2857 22.4919 15.5625 22.4919 17.1429Z" fill="url(#paint0_linear_38_226)"/>
<defs>
<linearGradient id="paint0_linear_38_226" x1="20" y1="0" x2="20" y2="40" gradientUnits="userSpaceOnUse">
<stop stop-color="#DBFFD0"/>
<stop offset="1" stop-color="white"/>
</linearGradient>
</defs>
</svg>
