<svg width="21" height="13" viewBox="0 0 21 13" fill="none" xmlns="http://www.w3.org/2000/svg">
<path d="M18.6221 0.100403C19.0631 0.100403 19.4884 0.253749 19.8037 0.53009C20.1195 0.806801 20.2998 1.18504 20.2998 1.58282V4.42755L20.2861 4.57892C20.26 4.72833 20.1972 4.87077 20.1016 4.99591C19.9741 5.16252 19.7951 5.29123 19.5879 5.367C19.3806 5.44276 19.1524 5.46365 18.9326 5.42657C18.7129 5.38948 18.5088 5.29536 18.3467 5.15607H18.3457L17.2695 4.21271L13.5635 7.45978L13.5615 7.46173C12.9413 7.98031 12.1194 8.26828 11.2666 8.26837C10.4136 8.26837 9.59108 7.98044 8.9707 7.46173L8.96875 7.45978L8.79004 7.30255V7.30157C8.60912 7.15067 8.36569 7.06525 8.11133 7.06525C7.8569 7.06532 7.6135 7.15053 7.43262 7.30157L7.43359 7.30255L2.06934 12.0037C1.85224 12.1945 1.55932 12.2992 1.25684 12.2996C0.954502 12.2999 0.661923 12.1958 0.444336 12.0057C0.22623 11.8151 0.10103 11.5526 0.100586 11.2762C0.100273 10.9999 0.224978 10.7377 0.442383 10.5467L5.80664 5.8465L5.80859 5.84454C6.42875 5.32533 7.25131 5.03693 8.10449 5.03693C8.85096 5.03696 9.57372 5.258 10.1582 5.66095L10.4004 5.84454L10.4023 5.8465L10.5791 6.00177L10.6494 6.05646C10.8209 6.17466 11.0355 6.24004 11.2588 6.24005C11.5141 6.24005 11.7572 6.15358 11.9385 6.00177L15.623 2.77423L14.5664 1.84845C14.4048 1.70672 14.2926 1.52457 14.2471 1.32404C14.2015 1.12308 14.2255 0.914641 14.3145 0.726379C14.4033 0.538491 14.5525 0.379986 14.7412 0.269348C14.93 0.158799 15.151 0.100507 15.376 0.100403H18.6221Z" fill="white" stroke="white" stroke-width="0.2"/>
</svg>
