<svg width="8" height="8" viewBox="0 0 8 8" fill="none" xmlns="http://www.w3.org/2000/svg">
<g clip-path="url(#clip0_38_209)">
<path d="M5 6.66667H1.66667C1.2248 6.66614 0.801186 6.49037 0.48874 6.17793C0.176294 5.86548 0.000529286 5.44186 0 5L0 1.66667C0.000529286 1.2248 0.176294 0.801186 0.48874 0.48874C0.801186 0.176294 1.2248 0.000529286 1.66667 0L5 0C5.44186 0.000529286 5.86548 0.176294 6.17793 0.48874C6.49037 0.801186 6.66614 1.2248 6.66667 1.66667V5C6.66614 5.44186 6.49037 5.86548 6.17793 6.17793C5.86548 6.49037 5.44186 6.66614 5 6.66667ZM8 6.33333V2C8 1.91159 7.96488 1.82681 7.90237 1.7643C7.83986 1.70179 7.75507 1.66667 7.66667 1.66667C7.57826 1.66667 7.49348 1.70179 7.43096 1.7643C7.36845 1.82681 7.33333 1.91159 7.33333 2V6.33333C7.33333 6.59855 7.22798 6.8529 7.04044 7.04044C6.8529 7.22798 6.59855 7.33333 6.33333 7.33333H2C1.91159 7.33333 1.82681 7.36845 1.7643 7.43096C1.70179 7.49348 1.66667 7.57826 1.66667 7.66667C1.66667 7.75507 1.70179 7.83986 1.7643 7.90237C1.82681 7.96488 1.91159 8 2 8H6.33333C6.7752 7.99947 7.19881 7.82371 7.51126 7.51126C7.82371 7.19881 7.99947 6.7752 8 6.33333Z" fill="#00C317"/>
</g>
<defs>
<clipPath id="clip0_38_209">
<rect width="8" height="8" fill="white"/>
</clipPath>
</defs>
</svg>
