<svg width="12" height="16" viewBox="0 0 12 16" fill="none" xmlns="http://www.w3.org/2000/svg">
<path d="M4.75 8.50122C4.55109 8.50122 4.36032 8.4222 4.21967 8.28155C4.07902 8.14089 4 7.95013 4 7.75122V2.56372L3.53062 3.03309C3.38973 3.17399 3.19863 3.25314 2.99937 3.25314C2.80012 3.25314 2.60902 3.17399 2.46812 3.03309C2.32723 2.89219 2.24807 2.7011 2.24807 2.50184C2.24807 2.30258 2.32723 2.11149 2.46812 1.97059L4.21812 0.220591C4.2878 0.150671 4.3706 0.0951938 4.46176 0.0573397C4.55292 0.0194857 4.65066 0 4.74937 0C4.84809 0 4.94583 0.0194857 5.03699 0.0573397C5.12815 0.0951938 5.21095 0.150671 5.28063 0.220591L7.03063 1.97059C7.17152 2.11149 7.25068 2.30258 7.25068 2.50184C7.25068 2.7011 7.17152 2.89219 7.03063 3.03309C6.88973 3.17399 6.69863 3.25314 6.49938 3.25314C6.30012 3.25314 6.10902 3.17399 5.96813 3.03309L5.5 2.56372V7.75122C5.5 7.95013 5.42098 8.14089 5.28033 8.28155C5.13968 8.4222 4.94891 8.50122 4.75 8.50122ZM9.5 7.34622V5.75122C9.5 5.4197 9.3683 5.10175 9.13388 4.86733C8.89946 4.63291 8.58152 4.50122 8.25 4.50122H7.5C7.30109 4.50122 7.11032 4.58023 6.96967 4.72089C6.82902 4.86154 6.75 5.0523 6.75 5.25122C6.75 5.45013 6.82902 5.64089 6.96967 5.78155C7.11032 5.9222 7.30109 6.00122 7.5 6.00122H8V10.27C7.61879 10.0502 7.17573 9.9622 6.73947 10.0197C6.30321 10.0773 5.8981 10.2771 5.5869 10.5882C5.27571 10.8993 5.07582 11.3044 5.01818 11.7406C4.96055 12.1769 5.0484 12.62 5.26812 13.0012C5.275 13.0137 5.2825 13.0256 5.29 13.0375L6.68125 15.1625C6.79024 15.3291 6.96094 15.4455 7.1558 15.4863C7.35066 15.527 7.55372 15.4886 7.72031 15.3797C7.8869 15.2707 8.00337 15.1 8.0441 14.9051C8.08483 14.7102 8.04649 14.5072 7.9375 14.3406L6.5625 12.2368C6.4981 12.1208 6.48244 11.9839 6.51895 11.8564C6.55546 11.7288 6.64116 11.6209 6.75719 11.5565C6.87322 11.4921 7.01008 11.4765 7.13766 11.513C7.26525 11.5495 7.3731 11.6352 7.4375 11.7512C7.44438 11.7637 7.45188 11.7756 7.46 11.7875L8.125 12.8062C8.21387 12.9402 8.34345 13.0421 8.49462 13.0968C8.6458 13.1516 8.81056 13.1563 8.96462 13.1103C9.11868 13.0643 9.25388 12.97 9.35027 12.8413C9.44667 12.7126 9.49916 12.5564 9.5 12.3956V9.37622C10.1444 10.1628 10.4976 11.1476 10.5 12.1643V14.7512C10.5 14.9501 10.579 15.1409 10.7197 15.2815C10.8603 15.4222 11.0511 15.5012 11.25 15.5012C11.4489 15.5012 11.6397 15.4222 11.7803 15.2815C11.921 15.1409 12 14.9501 12 14.7512V12.1668C11.9972 11.2223 11.7689 10.2921 11.334 9.45366C10.8992 8.61518 10.2704 7.89266 9.5 7.34622ZM2 4.50122H1.25C0.918479 4.50122 0.600537 4.63291 0.366117 4.86733C0.131696 5.10175 0 5.4197 0 5.75122V12.2512C4.19176e-09 12.4501 0.0790175 12.6409 0.21967 12.7815C0.360322 12.9222 0.551088 13.0012 0.75 13.0012C0.948912 13.0012 1.13968 12.9222 1.28033 12.7815C1.42098 12.6409 1.5 12.4501 1.5 12.2512V6.00122H2C2.19891 6.00122 2.38968 5.9222 2.53033 5.78155C2.67098 5.64089 2.75 5.45013 2.75 5.25122C2.75 5.0523 2.67098 4.86154 2.53033 4.72089C2.38968 4.58023 2.19891 4.50122 2 4.50122Z" fill="#00C317"/>
</svg>
