<svg width="10" height="6" viewBox="0 0 10 6" fill="none" xmlns="http://www.w3.org/2000/svg">
<path d="M0.759049 0H9.24095C9.39109 3.33974e-05 9.53784 0.0464399 9.66266 0.133353C9.78748 0.220267 9.88477 0.343785 9.94222 0.488291C9.99967 0.632798 10.0147 0.791806 9.98542 0.945213C9.95614 1.09862 9.88386 1.23954 9.77771 1.35016L5.53676 5.76842C5.39439 5.9167 5.20132 6 5 6C4.79868 6 4.60561 5.9167 4.46324 5.76842L0.222287 1.35016C0.116142 1.23954 0.0438603 1.09862 0.0145794 0.945213C-0.0147015 0.791806 0.000333386 0.632798 0.0577829 0.488291C0.115232 0.343785 0.212517 0.220267 0.337339 0.133353C0.462161 0.0464399 0.608915 3.33974e-05 0.759049 0Z" fill="#00C317"/>
</svg>
