<svg width="20" height="20" viewBox="0 0 20 20" fill="none" xmlns="http://www.w3.org/2000/svg">
<g clip-path="url(#clip0_44_468)">
<path d="M11.6667 5.83335C11.6667 6.16298 11.569 6.48522 11.3858 6.7593C11.2027 7.03338 10.9424 7.247 10.6379 7.37315C10.3333 7.49929 9.9982 7.5323 9.6749 7.46799C9.3516 7.40368 9.05463 7.24495 8.82154 7.01186C8.58845 6.77877 8.42972 6.4818 8.36541 6.1585C8.3011 5.8352 8.33411 5.50009 8.46025 5.19554C8.5864 4.891 8.80002 4.6307 9.0741 4.44757C9.34818 4.26443 9.67042 4.16668 10.0001 4.16668C10.4421 4.16668 10.866 4.34228 11.1786 4.65484C11.4911 4.9674 11.6667 5.39132 11.6667 5.83335ZM14.1317 10.1533L11.5834 12.6792C11.3766 12.8877 11.1306 13.0531 10.8596 13.166C10.5885 13.279 10.2978 13.3371 10.0042 13.3371C9.7106 13.3371 9.41989 13.279 9.14885 13.166C8.87781 13.0531 8.63182 12.8877 8.42505 12.6792L5.87838 10.1667C4.78485 9.03932 4.17244 7.53097 4.17058 5.96037C4.16871 4.38978 4.77753 2.87998 5.86838 1.75001C6.40452 1.19609 7.04657 0.755625 7.75635 0.454816C8.46613 0.154006 9.22916 -0.00100708 10.0001 -0.00100708C10.7709 -0.00100708 11.534 0.154006 12.2438 0.454816C12.9535 0.755625 13.5956 1.19609 14.1317 1.75001C15.2209 2.87754 15.8297 4.38398 15.8297 5.95168C15.8297 7.51938 15.2209 9.02582 14.1317 10.1533ZM13.3334 5.83335C13.3334 5.17408 13.1379 4.52961 12.7716 3.98145C12.4053 3.43328 11.8848 3.00604 11.2757 2.75375C10.6666 2.50146 9.99635 2.43545 9.34975 2.56406C8.70315 2.69268 8.1092 3.01015 7.64303 3.47632C7.17685 3.9425 6.85938 4.53644 6.73077 5.18305C6.60215 5.82965 6.66816 6.49987 6.92045 7.10896C7.17274 7.71805 7.59999 8.23864 8.14815 8.60491C8.69631 8.97118 9.34078 9.16668 10.0001 9.16668C10.8841 9.16668 11.732 8.81549 12.3571 8.19037C12.9822 7.56525 13.3334 6.7174 13.3334 5.83335ZM17.2942 7.66668C16.9901 9.04397 16.3079 10.3091 15.3242 11.32L12.7592 13.8642C12.3984 14.2259 11.9698 14.513 11.4979 14.7091C11.026 14.9051 10.5202 15.0062 10.0092 15.0067C9.49854 15.0069 8.99282 14.9064 8.52096 14.7111C8.04911 14.5158 7.62036 14.2294 7.25922 13.8683L4.70672 11.3492C3.736 10.3527 3.05472 9.11081 2.73588 7.75668C2.19463 7.95508 1.69974 8.26222 1.28172 8.65918C0.87426 9.04657 0.550363 9.51321 0.32995 10.0304C0.109538 10.5476 -0.00273094 11.1045 5.04432e-05 11.6667V15.0625C0.00180177 15.9636 0.294877 16.84 0.835543 17.5609C1.37621 18.2818 2.13548 18.8085 3.00005 19.0625L5.39172 19.8125C5.79344 19.9375 6.21183 20.0008 6.63255 20C7.01421 19.9995 7.39404 19.9474 7.76172 19.845L12.5784 18.42C13.0074 18.3025 13.4602 18.3025 13.8892 18.42L15.8784 19.0867C16.3686 19.206 16.8796 19.2125 17.3727 19.1056C17.8658 18.9988 18.3282 18.7814 18.7251 18.4698C19.122 18.1582 19.4429 17.7606 19.6638 17.3069C19.8846 16.8533 19.9996 16.3554 20.0001 15.8508V11.56C19.9972 10.7132 19.7369 9.88727 19.2536 9.19188C18.7703 8.4965 18.0869 7.96456 17.2942 7.66668Z" fill="#00C317"/>
</g>
<defs>
<clipPath id="clip0_44_468">
<rect width="20" height="20" fill="white"/>
</clipPath>
</defs>
</svg>
