<svg width="14" height="12" viewBox="0 0 14 12" fill="none" xmlns="http://www.w3.org/2000/svg">
<path d="M13.5723 4.58508C13.0459 3.77851 12.3819 3.05806 11.6066 2.45232L13.2393 0.924636C13.4631 0.707887 13.4566 0.362495 13.225 0.153163C12.999 -0.0510543 12.6408 -0.0510543 12.4148 0.153163L10.6392 1.8167C9.53851 1.20499 8.28016 0.886146 6.99999 0.894637C3.3899 0.894637 1.33266 3.20691 0.427675 4.5851C-0.142558 5.44808 -0.142558 6.5385 0.427675 7.40151C0.954093 8.20807 1.61811 8.92852 2.39337 9.53427L0.760653 11.0619C0.529001 11.2713 0.522578 11.6167 0.746303 11.8334C0.970029 12.0502 1.3392 12.0562 1.57082 11.8468C1.57569 11.8425 1.58047 11.838 1.58517 11.8334L3.36484 10.1683C4.46417 10.7799 5.72102 11.0992 6.99999 11.0919C10.6101 11.0919 12.6673 8.77968 13.5723 7.40148C14.1426 6.5385 14.1426 5.44808 13.5723 4.58508ZM3.50131 5.99329C3.498 4.18833 5.05911 2.72262 6.98818 2.71952C7.71807 2.71835 8.43003 2.93116 9.02401 3.32803L8.17733 4.12025C7.82188 3.91969 7.41507 3.81278 7.00001 3.81089C5.71184 3.81089 4.66756 4.78799 4.66756 5.99329C4.66958 6.38165 4.78383 6.76229 4.99818 7.09486L4.1515 7.88708C3.7287 7.33484 3.50134 6.67259 3.50131 5.99329ZM7.00001 9.26691C6.27401 9.26688 5.56623 9.05415 4.97602 8.65855L5.8227 7.86634C6.17815 8.0669 6.58495 8.1738 7.00001 8.17569C8.28819 8.17569 9.33247 7.1986 9.33247 5.99329C9.33045 5.60493 9.2162 5.2243 9.00185 4.89172L9.84853 4.09951C10.9696 5.56839 10.6057 7.60949 9.03585 8.6584C8.44186 9.05527 7.7299 9.26808 7.00001 9.26691Z" fill="white"/>
</svg>
