<svg width="12" height="16" viewBox="0 0 12 16" fill="none" xmlns="http://www.w3.org/2000/svg">
<path d="M9.76877 2.14195e-05C9.44145 0.00196255 9.21387 0.103787 9.07464 0.348063C8.48872 1.37584 7.78863 2.44738 7.45 3.65974C7.5449 3.688 7.63856 3.72059 7.73018 3.7569C7.97622 3.85439 8.21136 3.97764 8.41755 4.12666C9.33889 3.25683 10.3639 2.58704 11.3438 1.89736C11.7238 1.62989 11.7545 1.43476 11.6845 1.18799C11.6146 0.941232 11.3543 0.630685 10.9977 0.398737C10.6411 0.166823 10.199 0.0128942 9.83559 0.000974954C9.81284 0.000248448 9.79056 -9.2097e-05 9.76877 2.14195e-05ZM7.45997 0.0254264C7.12469 0.0192284 6.86462 0.24314 6.65943 0.714699C6.36029 1.4024 6.31772 2.53446 6.61105 3.54756C6.61627 3.54729 6.62142 3.54678 6.62667 3.54654C6.69326 3.54358 6.76019 3.54409 6.82745 3.54756C7.14319 2.3617 7.76324 1.34352 8.3002 0.430578C7.95521 0.141247 7.66857 0.0293087 7.45997 0.0254264ZM4.20465 2.00773L3.8533 2.53456C4.3492 2.87647 4.82556 3.20629 5.18551 3.603C5.31655 3.74739 5.43212 3.90003 5.5305 4.06639C5.65324 3.9095 5.81004 3.7837 5.98859 3.69887C6.00221 3.69246 6.01603 3.68678 6.02968 3.68082C5.91514 3.49556 5.78528 3.32603 5.64454 3.17095C5.21737 2.70007 4.69954 2.34896 4.20465 2.00773ZM11.6924 2.42559C10.7135 3.11445 9.73236 3.7589 8.86995 4.56356C8.88461 4.58317 8.89833 4.60333 8.91205 4.62349C9.60404 4.39362 10.5679 4.10133 11.3854 3.96248C11.7697 3.89724 11.9094 3.73936 11.9735 3.51201C12.0375 3.28466 11.9884 2.94295 11.7956 2.5931C11.7637 2.53567 11.7293 2.47979 11.6924 2.42559ZM4.19902 4.0558C3.69877 4.06261 3.20414 4.20223 2.72814 4.49054L3.04814 5.03644C3.77282 4.59747 4.47448 4.55514 5.23092 4.88105C5.24836 4.69064 5.28994 4.51798 5.35566 4.36307C5.36737 4.33563 5.38009 4.30906 5.39324 4.28291C4.99605 4.12898 4.59581 4.05045 4.19902 4.0558ZM6.73542 4.18977C6.54878 4.18694 6.38083 4.21504 6.25267 4.27579C6.10621 4.34519 6.00285 4.44314 5.92983 4.61532C5.90025 4.68503 5.87723 4.76993 5.86341 4.87053C5.87867 4.87029 5.89386 4.8695 5.90909 4.8694C6.44625 4.86654 6.99951 4.96373 7.55919 5.18237C7.81731 5.28317 8.06319 5.43618 8.29692 5.63135C8.40457 5.54808 8.46389 5.47061 8.49009 5.4088C8.53058 5.31351 8.52673 5.23226 8.46888 5.10843C8.3531 4.86068 7.96003 4.53103 7.50331 4.35003C7.27496 4.25951 7.03551 4.20618 6.81657 4.1929C6.78918 4.1912 6.76211 4.19015 6.73542 4.18977ZM5.90701 5.49942C5.13799 5.50197 4.41054 5.75095 3.732 6.17309C2.64633 6.84857 1.70539 7.98223 1.04355 9.23913C0.381772 10.496 0.00178027 11.8753 6.79961e-06 13.0032C-0.00176667 14.1291 0.343324 14.9536 1.09795 15.3115L1.10214 15.3137H1.10321C1.93547 15.7057 3.29883 15.9722 4.7307 15.9979C6.16253 16.0237 7.66831 15.8121 8.80882 15.3104C9.54364 14.9873 9.96475 14.3415 10.164 13.4662C10.3633 12.5908 10.3152 11.5027 10.0845 10.4246C9.85386 9.3465 9.44208 8.27708 8.94367 7.432C8.44526 6.58693 7.85235 5.97908 7.3354 5.77717C6.84471 5.58554 6.36842 5.49792 5.90701 5.49942Z" fill="#00C317" fill-opacity="0.88"/>
</svg>
