<svg width="24" height="21" viewBox="0 0 24 21" fill="none" xmlns="http://www.w3.org/2000/svg">
<path d="M23.2526 13.5955L21.3577 7.39555C20.7508 5.22709 19.4315 3.32197 17.6091 1.98268C15.7867 0.643382 13.5657 -0.0533218 11.2987 0.0031853C9.03179 0.0596924 6.84884 0.866171 5.09648 2.29457C3.34412 3.72298 2.12279 5.69143 1.6264 7.88738L0.154964 13.8858C-0.0406087 14.6829 -0.051205 15.5136 0.123975 16.3153C0.299155 17.1171 0.655536 17.8688 1.16622 18.5139C1.67691 19.159 2.32856 19.6805 3.07199 20.0391C3.81543 20.3977 4.63123 20.584 5.45782 20.5841H18.0295C18.8817 20.5841 19.7221 20.386 20.4833 20.0058C21.2446 19.6256 21.9055 19.0737 22.4132 18.3944C22.921 17.715 23.2613 16.9272 23.4071 16.0938C23.5529 15.2605 23.5 14.4049 23.2526 13.5955Z" fill="black"/>
</svg>
