<svg width="24" height="24" viewBox="0 0 24 24" fill="none" xmlns="http://www.w3.org/2000/svg">
<path d="M20.6175 14.8581C20.0399 14.3083 19.2726 14.0022 18.4751 14.0035C17.6777 14.0048 16.9114 14.3134 16.3355 14.8651L14.4295 16.4711C12.8737 15.827 11.4604 14.8819 10.2708 13.6901C9.08119 12.4982 8.13874 11.0832 7.49754 9.52611L9.09754 7.62611C9.64882 7.0502 9.95704 6.28404 9.95816 5.48681C9.95928 4.68958 9.65321 3.92256 9.10354 3.34511C9.10354 3.34511 7.25254 0.942109 7.22154 0.911108C6.65108 0.336317 5.87725 0.00923481 5.06748 0.000626145C4.2577 -0.00798252 3.4771 0.302575 2.89454 0.865108L1.74455 1.86511C-5.97544 10.0731 13.9445 30.0031 22.1445 22.1651L23.0565 21.1151C23.6354 20.5341 23.9605 19.7473 23.9605 18.9271C23.9605 18.1069 23.6354 17.3201 23.0565 16.7391C23.0245 16.7101 20.6175 14.8581 20.6175 14.8581ZM22.5255 12.5751C27.5165 5.22911 18.7255 -3.54789 11.3875 1.43911C11.1701 1.59094 11.0218 1.82296 10.9754 2.0841C10.929 2.34524 10.9882 2.61413 11.14 2.83161C11.2919 3.04909 11.5239 3.19734 11.785 3.24375C12.0462 3.29017 12.3151 3.23094 12.5325 3.07911C18.0045 -0.678891 24.6425 5.96211 20.8855 11.4311C20.8072 11.5386 20.7511 11.6607 20.7206 11.7902C20.69 11.9197 20.6856 12.054 20.7076 12.1852C20.7296 12.3164 20.7776 12.4419 20.8487 12.5543C20.9198 12.6668 21.0126 12.7639 21.1217 12.84C21.2309 12.9161 21.3541 12.9697 21.4841 12.9976C21.6142 13.0255 21.7486 13.0272 21.8793 13.0025C22.01 12.9778 22.1345 12.9273 22.2455 12.8539C22.3564 12.7805 22.4517 12.6858 22.5255 12.5751ZM18.6675 10.7101C18.855 10.5226 18.9603 10.2683 18.9603 10.0031C18.9603 9.73794 18.855 9.48364 18.6675 9.29611L16.9605 7.58911V5.00011C16.9605 4.73489 16.8552 4.48054 16.6676 4.293C16.4801 4.10547 16.2257 4.00011 15.9605 4.00011C15.6953 4.00011 15.441 4.10547 15.2534 4.293C15.0659 4.48054 14.9605 4.73489 14.9605 5.00011V8.00011C14.9606 8.2653 15.066 8.51962 15.2535 8.70711L17.2535 10.7071C17.4411 10.8946 17.6954 10.9999 17.9605 10.9999C18.2257 10.9999 18.48 10.8946 18.6675 10.7071V10.7101Z" fill="#00C317"/>
</svg>
