<svg width="18" height="20" viewBox="0 0 18 20" fill="none" xmlns="http://www.w3.org/2000/svg">
<path d="M15.3684 2.71101C11.8758 -0.879999 6.18666 -0.906995 2.66139 2.65077C-0.86389 6.20853 -0.890392 12.0037 2.60225 15.5947C2.62948 15.6227 2.65686 15.6505 2.68444 15.6781L5.90527 18.7077C7.62676 20.4243 10.3772 20.4317 12.1076 18.7244L15.3684 15.6548C18.8772 12.0805 18.8772 6.28542 15.3684 2.71101ZM13.916 11.2631C13.916 12.412 13.0018 13.3433 11.8739 13.3433H6.15602C5.02819 13.3433 4.11391 12.412 4.11391 11.2631V8.45738C4.11391 7.63907 4.50759 6.87272 5.16764 6.40629L7.61816 4.67474C8.45877 4.08302 9.57114 4.08302 10.4118 4.67474L12.8623 6.40629C13.5224 6.87272 13.916 7.63907 13.916 8.45738V11.2631ZM12.2824 8.45734V11.2631C12.2824 11.4928 12.0995 11.6791 11.8739 11.6791H10.6487V10.015C10.6487 9.55541 10.2829 9.1829 9.83183 9.1829H8.19813C7.74699 9.1829 7.3813 9.55545 7.3813 10.015V11.6791H6.15602C5.93047 11.6791 5.7476 11.4928 5.7476 11.2631V8.45734C5.74753 8.18449 5.87877 7.92891 6.09883 7.77338L8.54936 6.04183C8.82979 5.8454 9.20012 5.8454 9.48056 6.04183L11.9311 7.77338C12.1512 7.92891 12.2824 8.18449 12.2824 8.45734Z" fill="#FF3333"/>
</svg>
