<svg width="38" height="37" viewBox="0 0 38 37" fill="none" xmlns="http://www.w3.org/2000/svg">
<path d="M14.9592 1.81121L14.4123 1.46824C13.342 0.81199 12.0061 0.43074 10.8576 0.788552C9.62326 1.17293 8.63888 2.12371 8.12325 3.55183L7.38888 3.17371C6.12325 2.52215 5.46075 2.51199 4.91154 2.75886C4.47325 2.95496 4.01622 3.42683 3.49825 4.1159L9.93576 9.09324C10.9436 9.42136 12.4201 9.41355 13.8967 9.03074C15.3811 8.64793 16.8576 7.89793 17.9358 6.89011L20.3654 0.882302C18.2248 -0.809104 16.2717 0.170583 14.9592 1.81121ZM19.1076 7.78855C17.7795 9.1323 15.8029 10.0386 14.2639 10.4448C13.7248 10.5854 13.1858 10.687 12.6623 10.7417C12.3733 11.2182 12.1311 11.7026 11.9436 12.187C12.3186 14.0932 13.0217 15.6557 14.0764 16.937L12.9514 17.8745C12.3029 17.0932 11.7248 16.2495 11.2873 15.312C11.217 17.1245 11.6233 18.9995 12.2873 20.9526L10.9045 21.4214C9.68575 17.8589 9.27169 14.2104 10.9826 10.7729C10.4045 10.7261 9.85763 10.6167 9.34982 10.437L9.32638 10.4292C8.99044 10.7495 8.67013 11.0854 8.36544 11.437C5.89904 14.2964 4.54044 18.101 5.25138 21.062C5.63185 22.6479 6.31388 24.1479 7.29513 25.4292C8.73263 25.3979 10.092 25.4292 11.3264 25.8979C11.9123 25.8354 12.5139 25.7964 13.1389 25.7964C15.3654 25.7964 17.3811 26.2104 18.9045 26.9292C19.4983 27.2104 20.0373 27.5464 20.467 27.9292C20.467 27.5151 20.5295 27.0698 20.6545 26.7417C19.9592 26.0854 19.5217 25.2886 19.5217 24.3823C19.5217 23.1245 20.3576 22.0854 21.5686 21.3354C21.5686 20.9761 21.6389 20.6323 21.7639 20.3042C20.9748 19.6245 20.467 18.7807 20.467 17.7964C20.467 17.1792 20.6701 16.6167 21.0139 16.1089C20.6701 15.6089 20.467 15.0464 20.467 14.4292C20.467 14.1245 20.5139 13.8432 20.5998 13.5698C19.842 12.8979 19.3654 12.0698 19.3654 11.1167C19.3654 10.1714 19.8342 9.35105 20.5842 8.68699C20.1233 8.32761 19.6311 8.02293 19.1076 7.78855ZM27.8108 7.96824C25.7795 7.96824 23.9436 8.39793 22.6858 9.03074C21.4201 9.66355 20.8264 10.4448 20.8264 11.1167C20.8264 11.7964 21.4201 12.5776 22.6858 13.2104C23.9436 13.8432 25.7795 14.2729 27.8108 14.2729C28.6936 14.2729 29.5295 14.187 30.3029 14.0464V12.7182C31.3889 12.5542 32.2873 12.2573 32.8654 11.8745V13.2495C33.842 12.9682 34.7795 11.9292 34.8029 11.1167C34.8029 10.4448 34.2092 9.66355 32.9436 9.03074C31.6779 8.39793 29.8498 7.96824 27.8108 7.96824ZM35.3498 13.2573C35.092 13.5307 34.7873 13.7886 34.4436 14.0229L34.4592 16.2886C35.4436 15.7026 35.9045 15.0229 35.9045 14.4292C35.9045 14.0542 35.7248 13.6479 35.3498 13.2573ZM21.9279 14.4604C21.9514 15.1323 22.5451 15.8901 23.7873 16.5151C25.0529 17.1557 26.8811 17.5776 28.9201 17.5776C30.1936 17.5776 31.3889 17.4057 32.4123 17.1245L32.467 14.9995C31.1233 15.4682 29.5295 15.7261 27.8108 15.7261C25.5842 15.7261 23.5608 15.2807 22.0295 14.5151C21.9904 14.4995 21.9592 14.4761 21.9279 14.4604ZM22.0842 17.1792C21.9748 17.3901 21.9279 17.6011 21.9279 17.7964C21.9279 18.4761 22.5217 19.2573 23.7873 19.8901C25.0529 20.5229 26.8811 20.9448 28.9201 20.9448C29.9514 20.9448 30.9279 20.8432 31.8108 20.6479V18.7729C30.9045 18.9448 29.9358 19.0307 28.9201 19.0307C26.6858 19.0307 24.6623 18.5932 23.1311 17.8198C22.7483 17.6323 22.3967 17.4136 22.0842 17.1792ZM35.7483 17.1792C35.2717 17.5151 34.8576 17.7651 34.3733 17.9761V19.7182C35.4123 19.1167 35.9045 18.4136 35.9045 17.7964C35.9045 17.6011 35.8576 17.3901 35.7483 17.1792ZM36.3342 20.0542C36.1779 20.2104 36.0061 20.3589 35.8186 20.5073V23.0386C36.6233 22.4917 37.0139 21.8901 37.0139 21.3432C37.0139 20.9292 36.7873 20.4839 36.3342 20.0542ZM23.0451 21.1479C23.0373 21.2182 23.0295 21.2807 23.0295 21.3432C23.0295 22.0229 23.6233 22.7964 24.8889 23.4292C26.1545 24.0698 27.9904 24.4917 30.0217 24.4917C31.1858 24.4917 32.2951 24.3511 33.2561 24.1167V21.7807C31.9826 22.187 30.5061 22.4057 28.9201 22.4057C26.6858 22.4057 24.6623 21.9604 23.1311 21.1948C23.0998 21.1792 23.0764 21.1636 23.0451 21.1479ZM21.9826 22.8198C21.3029 23.3276 20.9826 23.8823 20.9826 24.3823C20.9826 25.062 21.5764 25.8354 22.842 26.4761C24.1076 27.1089 25.9358 27.5307 27.9748 27.5307C28.717 27.5307 29.4358 27.4761 30.1076 27.3745V25.9526H30.0217C27.7873 25.9526 25.7639 25.5073 24.2326 24.7339C23.2561 24.2495 22.4436 23.6011 21.9826 22.8198ZM34.6779 25.2104C34.0608 25.4292 33.3889 25.6089 32.6701 25.7261V26.6714C32.8186 26.6089 32.967 26.5464 33.1076 26.4761C33.8733 26.0854 34.3889 25.6479 34.6779 25.2104ZM35.3967 26.6323C35.0998 26.9292 34.7561 27.1948 34.3733 27.437V29.6714C35.4123 29.0776 35.9045 28.3745 35.9045 27.7573C35.9045 27.3979 35.7404 27.0073 35.3967 26.6323ZM8.1545 26.8511C7.35763 26.8589 6.49825 26.9604 5.60763 27.1714C3.8256 27.5854 2.29357 28.3432 1.29357 29.1792C0.293567 30.0073 -0.0970584 30.8511 0.0201291 31.4526C0.137317 32.0542 0.754504 32.6089 1.95763 32.9292C3.15685 33.2417 4.83419 33.2573 6.61544 32.8432C7.33419 32.6714 8.00607 32.4526 8.62325 32.1948V30.5776C9.76388 30.0698 10.6154 29.4604 10.9983 28.8667V30.7729C11.9436 29.9604 12.3108 29.1479 12.2014 28.5542C12.092 27.9526 11.467 27.3979 10.2639 27.0854C9.66232 26.9292 8.94357 26.8432 8.1545 26.8511ZM13.2014 27.2573C13.4123 27.562 13.5608 27.9057 13.6389 28.2886C13.7248 28.7573 13.6858 29.2104 13.5451 29.6557C14.3186 29.8589 15.0217 30.1323 15.6311 30.4761C15.9748 30.6636 16.2951 30.8901 16.5764 31.1245C17.2795 30.9604 17.8733 30.7261 18.2951 30.4448V32.0542C19.5529 31.4604 20.1311 30.7339 20.1311 30.1557C20.1311 29.5698 19.5529 28.8432 18.2873 28.2495C17.0295 27.6636 15.217 27.2651 13.2014 27.2573ZM21.9358 27.6479C21.9279 27.6792 21.9279 27.7182 21.9279 27.7573C21.9279 28.437 22.5217 29.2104 23.7873 29.8511C25.0529 30.4839 26.8811 30.9057 28.9201 30.9057C29.9514 30.9057 30.9279 30.7964 31.8108 30.6089V28.5073C30.6545 28.8198 29.3498 28.9917 27.9748 28.9917C25.7404 28.9917 23.717 28.5464 22.1858 27.7807C22.0998 27.7339 22.0139 27.687 21.9358 27.6479ZM22.1545 30.562C21.9983 30.8198 21.9279 31.0698 21.9279 31.312C21.9279 31.9917 22.5217 32.7651 23.7873 33.4057C25.0529 34.0386 26.8811 34.4604 28.9201 34.4604C29.9514 34.4604 30.9279 34.3511 31.8108 34.1636V32.1011C30.9045 32.2729 29.9358 32.3667 28.9201 32.3667C26.6858 32.3667 24.6623 31.9214 23.1311 31.1479C22.7795 30.9761 22.4514 30.7807 22.1545 30.562ZM35.6779 30.562C35.2248 30.8667 34.8264 31.1089 34.3733 31.3042V33.2261C35.4123 32.6323 35.9045 31.9292 35.9045 31.312C35.9045 31.0698 35.8342 30.8198 35.6779 30.562ZM12.8186 30.9839C12.5451 31.3276 12.2248 31.6557 11.8654 31.9526C10.6467 32.9761 8.92794 33.8042 6.94357 34.2651C6.23575 34.4292 5.53263 34.5307 4.85763 34.5854C5.10763 34.9995 5.54747 35.4057 6.19122 35.7651C7.25607 36.3667 8.81857 36.7729 10.5529 36.7729C11.342 36.7729 12.092 36.687 12.7795 36.5386V34.9136C13.8576 34.7495 14.7639 34.4526 15.342 34.0698V35.5073C16.1233 34.9604 16.4983 34.3432 16.4983 33.7573C16.4983 33.0776 15.9904 32.3511 14.9201 31.7495C14.342 31.4292 13.6233 31.1635 12.8186 30.9839Z" fill="#E89200"/>
</svg>
