<svg width="34" height="37" viewBox="0 0 34 37" fill="none" xmlns="http://www.w3.org/2000/svg">
<path d="M4.16667 0C1.86667 0 0 1.86667 0 4.16667V8.04C0.000887697 8.93113 0.23992 9.80583 0.692356 10.5736C1.14479 11.3413 1.79419 11.9742 2.57333 12.4067L12.16 17.7367C10.152 18.7504 8.5444 20.4115 7.59697 22.4516C6.64954 24.4917 6.4176 26.7917 6.93863 28.9799C7.45967 31.1681 8.70323 33.1168 10.4684 34.511C12.2336 35.9052 14.4173 36.6636 16.6667 36.6636C18.916 36.6636 21.0997 35.9052 22.8649 34.511C24.6301 33.1168 25.8737 31.1681 26.3947 28.9799C26.9157 26.7917 26.6838 24.4917 25.7364 22.4516C24.7889 20.4115 23.1813 18.7504 21.1733 17.7367L30.7633 12.41C31.5423 11.9768 32.1914 11.3432 32.6433 10.5749C33.0951 9.80653 33.3334 8.93136 33.3333 8.04V4.16667C33.3333 1.86667 31.4667 0 29.1667 0H4.16667ZM13.3333 14.5733V3.33333H20V14.5733L16.6667 16.4267L13.3333 14.5733ZM23.3333 26.6667C23.3333 28.4348 22.631 30.1305 21.3807 31.3807C20.1305 32.631 18.4348 33.3333 16.6667 33.3333C14.8986 33.3333 13.2029 32.631 11.9526 31.3807C10.7024 30.1305 10 28.4348 10 26.6667C10 24.8986 10.7024 23.2029 11.9526 21.9526C13.2029 20.7024 14.8986 20 16.6667 20C18.4348 20 20.1305 20.7024 21.3807 21.9526C22.631 23.2029 23.3333 24.8986 23.3333 26.6667Z" fill="url(#paint0_linear_38_240)"/>
<defs>
<linearGradient id="paint0_linear_38_240" x1="16.6667" y1="0" x2="16.6667" y2="36.6636" gradientUnits="userSpaceOnUse">
<stop stop-color="#EFFFFC"/>
<stop offset="1" stop-color="#94FFED"/>
</linearGradient>
</defs>
</svg>
