<svg width="16" height="16" viewBox="0 0 16 16" fill="none" xmlns="http://www.w3.org/2000/svg">
<g clip-path="url(#clip0_59_259)">
<path d="M6.66667 15.3329C6.66667 15.5097 6.59643 15.6793 6.4714 15.8043C6.34638 15.9293 6.17681 15.9996 6 15.9996H0.666667C0.489856 15.9996 0.320286 15.9293 0.195262 15.8043C0.0702379 15.6793 0 15.5097 0 15.3329C0 15.1561 0.0702379 14.9865 0.195262 14.8615C0.320286 14.7365 0.489856 14.6663 0.666667 14.6663H6C6.17681 14.6663 6.34638 14.7365 6.4714 14.8615C6.59643 14.9865 6.66667 15.1561 6.66667 15.3329Z" fill="#00C317" fill-opacity="0.72"/>
<path d="M0.666667 13.3333H4.66667C4.84348 13.3333 5.01305 13.2631 5.13807 13.1381C5.2631 13.0131 5.33333 12.8435 5.33333 12.6667C5.33333 12.4899 5.2631 12.3203 5.13807 12.1953C5.01305 12.0702 4.84348 12 4.66667 12H0.666667C0.489856 12 0.320286 12.0702 0.195262 12.1953C0.0702379 12.3203 0 12.4899 0 12.6667C0 12.8435 0.0702379 13.0131 0.195262 13.1381C0.320286 13.2631 0.489856 13.3333 0.666667 13.3333Z" fill="#00C317" fill-opacity="0.72"/>
<path d="M0.666667 10.6671H3.33333C3.51014 10.6671 3.67971 10.5968 3.80474 10.4718C3.92976 10.3468 4 10.1772 4 10.0004C4 9.8236 3.92976 9.65403 3.80474 9.529C3.67971 9.40398 3.51014 9.33374 3.33333 9.33374H0.666667C0.489856 9.33374 0.320286 9.40398 0.195262 9.529C0.0702379 9.65403 0 9.8236 0 10.0004C0 10.1772 0.0702379 10.3468 0.195262 10.4718C0.320286 10.5968 0.489856 10.6671 0.666667 10.6671Z" fill="#00C317" fill-opacity="0.72"/>
<path d="M8 0C5.87827 0 3.84344 0.842855 2.34315 2.34315C0.842855 3.84344 0 5.87827 0 8C0 8.04067 0.00533333 8.08 0.006 8.12067C0.21773 8.04307 0.441175 8.00226 0.666667 8H3.33333C3.6606 7.99889 3.9831 8.07838 4.27237 8.23144C4.56164 8.3845 4.80877 8.60643 4.99194 8.87764C5.17512 9.14884 5.2887 9.46097 5.32266 9.78647C5.35662 10.112 5.30991 10.4408 5.18667 10.744C5.45963 10.8156 5.71416 10.9447 5.93326 11.1226C6.15236 11.3004 6.33098 11.523 6.45719 11.7754C6.5834 12.0278 6.65428 12.3043 6.66512 12.5863C6.67595 12.8683 6.62647 13.1493 6.52 13.4107C6.78661 13.4787 7.03598 13.6019 7.25197 13.7723C7.46796 13.9428 7.64578 14.1567 7.7739 14.4002C7.90203 14.6437 7.97762 14.9114 7.99578 15.1859C8.01394 15.4604 7.97427 15.7357 7.87933 15.994C7.92 15.994 7.95933 16 8 16C10.1217 16 12.1566 15.1571 13.6569 13.6569C15.1571 12.1566 16 10.1217 16 8C16 5.87827 15.1571 3.84344 13.6569 2.34315C12.1566 0.842855 10.1217 0 8 0V0ZM10.4713 10.4713C10.3463 10.5963 10.1768 10.6665 10 10.6665C9.82322 10.6665 9.65369 10.5963 9.52867 10.4713L7.52867 8.47133C7.40363 8.34634 7.33337 8.1768 7.33333 8V4.66667C7.33333 4.48986 7.40357 4.32029 7.5286 4.19526C7.65362 4.07024 7.82319 4 8 4C8.17681 4 8.34638 4.07024 8.47141 4.19526C8.59643 4.32029 8.66667 4.48986 8.66667 4.66667V7.724L10.4713 9.52867C10.5963 9.65369 10.6665 9.82322 10.6665 10C10.6665 10.1768 10.5963 10.3463 10.4713 10.4713Z" fill="#00C317" fill-opacity="0.72"/>
</g>
<defs>
<clipPath id="clip0_59_259">
<rect width="16" height="16" fill="white"/>
</clipPath>
</defs>
</svg>
