<svg width="15" height="14" viewBox="0 0 15 14" fill="none" xmlns="http://www.w3.org/2000/svg">
<path d="M14 0H0.666667C0.489856 0 0.320286 0.0702379 0.195262 0.195262C0.0702379 0.320286 0 0.489856 0 0.666667V6C0 6.17681 0.0702379 6.34638 0.195262 6.4714C0.320286 6.59643 0.489856 6.66667 0.666667 6.66667H2.66667V12.6667C2.66667 12.8435 2.7369 13.013 2.86193 13.1381C2.98695 13.2631 3.15652 13.3333 3.33333 13.3333H11.3333C11.5101 13.3333 11.6797 13.2631 11.8047 13.1381C11.9298 13.013 12 12.8435 12 12.6667V6.66667H14C14.1768 6.66667 14.3464 6.59643 14.4714 6.4714C14.5964 6.34638 14.6667 6.17681 14.6667 6V0.666667C14.6667 0.489856 14.5964 0.320286 14.4714 0.195262C14.3464 0.0702379 14.1768 0 14 0ZM4 12V10.6667C4.35362 10.6667 4.69276 10.8071 4.94281 11.0572C5.19286 11.3072 5.33333 11.6464 5.33333 12H4ZM10.6667 12H9.33333C9.33333 11.6464 9.47381 11.3072 9.72386 11.0572C9.97391 10.8071 10.313 10.6667 10.6667 10.6667V12ZM10.6667 9.33333C9.95942 9.33333 9.28115 9.61428 8.78105 10.1144C8.28095 10.6145 8 11.2928 8 12H6.66667C6.66667 11.2928 6.38572 10.6145 5.88562 10.1144C5.38552 9.61428 4.70724 9.33333 4 9.33333V4H10.6667V9.33333ZM13.3333 5.33333H12V3.33333C12 3.15652 11.9298 2.98695 11.8047 2.86193C11.6797 2.7369 11.5101 2.66667 11.3333 2.66667H3.33333C3.15652 2.66667 2.98695 2.7369 2.86193 2.86193C2.7369 2.98695 2.66667 3.15652 2.66667 3.33333V5.33333H1.33333V1.33333H13.3333V5.33333ZM7.33333 8.66667C7.7289 8.66667 8.11558 8.54937 8.44447 8.32961C8.77337 8.10984 9.02972 7.79749 9.18109 7.43203C9.33247 7.06658 9.37208 6.66445 9.2949 6.27649C9.21773 5.88852 9.02725 5.53216 8.74755 5.25245C8.46784 4.97275 8.11148 4.78227 7.72351 4.7051C7.33555 4.62793 6.93342 4.66753 6.56797 4.81891C6.20251 4.97028 5.89016 5.22663 5.67039 5.55553C5.45063 5.88442 5.33333 6.2711 5.33333 6.66667C5.33333 7.1971 5.54405 7.70581 5.91912 8.08088C6.29419 8.45595 6.8029 8.66667 7.33333 8.66667ZM7.33333 6C7.46519 6 7.59408 6.0391 7.70371 6.11235C7.81335 6.18561 7.8988 6.28973 7.94925 6.41154C7.99971 6.53336 8.01291 6.66741 7.98719 6.79673C7.96147 6.92605 7.89797 7.04484 7.80474 7.13807C7.7115 7.23131 7.59271 7.2948 7.46339 7.32052C7.33407 7.34625 7.20003 7.33304 7.07821 7.28259C6.95639 7.23213 6.85227 7.14668 6.77902 7.03705C6.70577 6.92741 6.66667 6.79852 6.66667 6.66667C6.66667 6.48986 6.73691 6.32029 6.86193 6.19526C6.98695 6.07024 7.15652 6 7.33333 6Z" fill="#00C317"/>
</svg>
