<svg width="12" height="16" viewBox="0 0 12 16" fill="none" xmlns="http://www.w3.org/2000/svg">
<path d="M12 15.0017C11.9996 14.7363 11.8393 14.4818 11.5541 14.2943L3.77966 9.17379C3.54434 9.01885 3.35767 8.83489 3.23032 8.63242C3.10296 8.42995 3.03741 8.21294 3.03741 7.99379C3.03741 7.77463 3.10296 7.55762 3.23032 7.35515C3.35767 7.15269 3.54434 6.96873 3.77966 6.81378L11.544 1.69664C11.8209 1.50782 11.9741 1.25493 11.9706 0.992437C11.9672 0.729942 11.8073 0.478845 11.5255 0.293226C11.2436 0.107607 10.8624 0.00231885 10.4639 3.78456e-05C10.0653 -0.00224316 9.68134 0.0986658 9.39466 0.281031L1.63033 5.39417C0.586337 6.08313 9.53674e-07 7.01674 9.53674e-07 7.99012C9.53674e-07 8.96349 0.586337 9.89711 1.63033 10.5861L9.4048 15.7065C9.61707 15.8464 9.88752 15.9418 10.182 15.9806C10.4765 16.0193 10.7818 15.9998 11.0594 15.9244C11.337 15.849 11.5745 15.7211 11.7419 15.5569C11.9093 15.3927 11.9991 15.1995 12 15.0017Z" fill="black"/>
</svg>
